<?xml version="1.0" encoding="UTF-8"?>
<svg width="100%" height="100%" preserveAspectRatio="xMidYMid" version="1.0" viewBox="0 0 216.18 221" xmlns="http://www.w3.org/2000/svg">
 <metadata>Created by potrace 1.10, written by Peter Selinger 2001-2011</metadata>
 <g transform="matrix(.1 0 0 -.1 -8.2639 226)">
  <path d="m1100 2253c-8-3-56-47-106-97s-111-110-135-132c-24-23-51-50-60-60-9-11-29-30-45-44s-44-43-63-64c-29-33-37-37-64-32-41 8-51 18-92 91-29 52-36 78-42 142-10 127-26 148-74 97-22-23-24-35-26-122-3-109-2-109-90-111-35-1-51-8-83-38-36-31-41-41-38-72 3-40 2-40 93-16 49 13 71 13 123 4 34-6 65-15 68-20s12-9 21-9c20 0 73-38 73-54 0-7-36-50-81-97-45-46-100-109-124-141-23-31-78-92-122-136-113-112-163-188-135-206 10-6 63 43 101 94 14 19 65 75 113 124 49 50 88 94 88 98 0 8 52 66 176 198 39 41 90 100 114 130 48 63 136 157 231 246 35 34 78 77 95 95 18 19 53 54 78 78 51 49 53 72 6 54z"/>
  <path d="m1270 2202c-36-31-81-74-100-95-47-51-198-212-247-262-22-22-75-73-118-114-43-40-99-99-124-130-99-124-299-348-387-436-39-38-89-95-111-125s-48-61-57-69c-21-17-50-71-42-78 9-9 23 6 72 79 55 82 56 83 104 119 41 31 92 83 253 264 65 72 134 149 155 173 21 23 46 42 54 42 9 0 38-19 64-42 27-24 72-59 99-77 133-92 298-271 329-358 8-21 28-69 45-106 44-98 42-145-11-254-23-47-61-106-84-132-55-61-130-86-259-86-77 0-98 4-147 27-154 72-223 178-223 344 0 92 3 97 83 156 152 113 262 103 346-30 38-60 34-111-10-133-19-9-47-13-69-11-31 4-39 10-51 38-15 35-40 54-73 54-24 0-37-22-52-88-9-44-8-55 11-92 31-60 72-83 140-76 66 6 99 22 164 79l48 43 1 71c0 54-6 82-24 119-22 48-113 154-131 154-4 0-25 11-46 25-20 13-46 26-57 27-11 2-25 7-32 11-21 13-126-4-180-29-59-29-93-60-167-156-27-37-28-39-24-155l3-118 42-70c23-38 69-100 103-137 67-74 69-90 13-118-29-14-103-88-103-103 0-5-10-22-21-39-52-73-12-258 56-258 8 0 24 14 36 31 21 30 21 32 5 45-11 8-20 31-23 56-4 38 0 50 33 100 42 61 113 122 154 131 14 4 49 0 78-7 97-26 295 4 379 57 98 63 174 187 189 307 2 19 6 50 9 68 8 44-11 135-41 200-13 29-24 59-24 67 0 20 48 20 87 0 66-33 297-14 386 31 41 21 114 102 150 168 24 43 29 66 33 146 3 52 7 96 9 98 6 6-16 75-42 131-14 33-22 64-19 77 8 32 98 137 138 162 27 17 45 19 98 16 54-4 69-2 88 15 18 16 20 24 12 45-9 26-64 56-101 56-68 0-226-91-270-154-13-20-31-36-39-36s-41 18-72 39c-32 21-97 56-145 77-81 35-96 38-183 38-121 1-169-20-229-100-22-30-41-62-41-70s-5-25-12-37c-43-81-13-195 83-312 107-130 197-159 313-100 108 55 130 113 81 212-52 103-232 174-251 99-14-56 30-96 105-96 31 0 44-6 61-27 25-32 23-42-20-70-37-25-116-31-152-12-47 25-111 128-131 211-13 52 18 96 103 149 51 31 62 34 135 34 82 0 124-12 180-50 77-52 100-75 152-153l56-82v-83c0-81-26-190-54-224-24-28-96-69-153-87-109-35-222-21-361 44-106 49-147 78-225 159-36 37-106 97-156 134-141 105-146 84 74 309 103 106 231 236 285 290 53 54 97 101 97 103 0 3-8 5-17 5-10 0-47-26-83-58z"/>
  <path d="m1985 981c-24-12-70-15-232-13-236 1-231 3-214-85 38-192 35-391-7-470-15-27-6-51 27-80 42-37 74-27 103 32 38 75 46 161 24 265-8 36-11 69-6 73 11 12 51-16 84-60 52-68 230-183 284-183 34 0 62 18 62 41 0 39-49 94-155 174-27 21-72 61-100 89l-50 50 55 9c154 23 264 63 276 99 8 25-19 54-60 67-40 12-54 11-91-8z"/>
 </g>
</svg>
