<?xml version="1.0" encoding="UTF-8"?>
<!-- Created with Inkscape (http://www.inkscape.org/) -->
<svg width="100%" height="100%" version="1.1" viewBox="0 0 152.4 101.6" xml:space="preserve" xmlns="http://www.w3.org/2000/svg"><g transform="translate(-47.994 -28.684)"><path d="m199.47 75.621c-14.348-27.996-42.754-46.937-75.279-46.937s-60.939 18.955-75.279 46.94a8.5593 8.5593 0 0 0 0 7.7232c14.348 27.996 42.754 46.937 75.279 46.937s60.939-18.955 75.279-46.94a8.5593 8.5593 0 0 0 0-7.7232zm-75.279 41.963a38.1 38.1 0 1 1 38.1-38.1 38.081 38.081 0 0 1-38.1 38.1zm0-63.5a25.217 25.217 0 0 0-6.6966 1.0028 12.66 12.66 0 0 1-17.701 17.701 25.342 25.342 0 1 0 24.397-18.703z" stroke-width=".26458"/></g></svg>
