<?xml version="1.0" encoding="UTF-8"?>
<!-- Created with Inkscape (http://www.inkscape.org/) -->
<svg width="100%" height="100%" version="1.1" viewBox="0 0 169.29 135.23" xml:space="preserve" xmlns="http://www.w3.org/2000/svg"><g transform="translate(-27.839 -56.223)"><path d="m113.86 149.22-26.273-20.611c2.1968 11.79 12.504 20.735 24.929 20.735 0.47096 8e-3 0.89429-0.0979 1.3441-0.12436zm-1.3494 12.832c-21.034 0-38.1-17.071-38.1-37.862 0-1.7963 0.2884-3.5137 0.29104-5.244l-25.352-20.288c-4.7016 6.2839-8.8027 13.24-12.121 20.794-0.50536 1.1668-1.1562 3.1776-1.1562 4.5006 0 1.3168 0.41354 3.3338 0.91784 4.5059 14.354 32.65 42.757 54.531 75.274 54.531 12.028 0 23.487-3.0401 33.893-8.5037l-19.711-15.452c-4.3839 1.987-9.1464 3.0189-13.935 3.0189zm82.232 18.283-27.384-21.46c8.3-8.4561 15.285-18.719 20.428-30.189 0.5043-1.1721 0.91784-3.1935 0.91784-4.5058 0-1.3166-0.41328-3.3338-0.91784-4.5059-14.354-32.65-42.757-54.531-75.274-54.531-16.587 0-32.068 5.805-45.191 15.774l-29.21-23.345c-1.1642-0.90937-2.5453-1.3536-3.9105-1.3536-1.8838 0-3.7547 0.83556-5.003 2.4313-2.1661 2.7622-1.6854 6.7548 1.0763 8.9165l156.4 122.53c2.7781 2.1704 6.7654 1.6756 8.9138-1.0776 2.4133-2.5178 1.9106-6.513-0.84111-8.6826zm-44.371-56.383c0 6.5749-1.774 12.695-4.7493 18.063l-10.2-7.9984c1.3864-3.0903 2.2476-6.4611 2.2476-10.075 0-13.785-11.377-25.4-25.162-25.4-0.6088 0.0078-1.475 0.11737-2.2386 0.20262 1.3933 2.4538 2.0018 5.2584 2.0018 8.2746 0 2.6908-0.6776 5.2044-1.8047 7.4507l-23.463-18.59c6.7363-6.186 15.642-10.036 25.511-10.036 21.029 0.0079 37.857 17.1 37.857 38.108z" stroke-width=".26458"/></g></svg>
