<?xml version="1.0" encoding="UTF-8"?>
<!-- Created with Inkscape (http://www.inkscape.org/) -->
<svg width="100%" height="100%" version="1.1" viewBox="0 0 60.275 44.518" xml:space="preserve" xmlns="http://www.w3.org/2000/svg"><g transform="translate(-84.476 -127.48)"><g transform="matrix(.035278 0 0 -.035278 68.591 200.96)"><path d="m753 2075c-72-30-211-195-266-314-30-66-44-150-33-194 7-30 140-140 164-135 37 7 22 36-48 92-79 64-81 69-50 167 22 74 85 171 163 256 78 83 94 90 147 63 23-12 97-46 163-76 93-41 124-51 134-42 8 6 13 18 11 25-2 12-211 113-333 163-13 5-33 3-52-5z"/><path d="m1735 1878-90-41-125 33c-198 53-206 52-352-17-67-33-139-66-158-73-76-29-91-74-44-130 70-83 192-96 331-35l56 25 41-33c51-42 398-292 423-305 45-24 176 20 281 95 63 45 64 47 59 84-10 76-147 305-238 397-52 52-67 52-184 0zm178-75c68-85 120-168 164-258l33-69-28-23c-39-33-161-93-203-99-33-6-46 0-145 72-220 158-300 217-332 247-31 30-34 31-65 18-161-67-226-75-292-36-59 34-64 52-17 72 20 8 93 42 162 75 82 39 134 58 150 55 14-2 88-21 165-41l139-37 76 31c41 17 86 37 100 45s28 14 32 15c4 0 31-30 61-67z"/><path d="m723 1448c-13-6-42-36-65-67-56-74-57-109-4-185 58-84 146-176 249-260 83-67 99-76 135-76 39 0 45 4 102 72 53 64 60 77 60 116 0 35-6 49-29 73-16 16-36 29-43 29-9 0-13 13-13 39 0 47-32 87-76 96-23 5-29 12-29 34 0 52-68 102-120 88-14-3-30 4-49 24-32 31-76 37-118 17zm78-57c21-17 22-22 12-40-37-59 4-78 57-26 32 31 41 35 58 26 32-17 36-47 13-87-12-19-21-44-21-55 0-27 35-24 68 6 23 22 29 23 47 11 30-20 30-53 1-91-14-18-26-41-26-50 0-26 29-29 54-6 12 11 29 21 38 21 25 0 51-36 45-62-7-27-94-128-110-128-21 0-158 113-232 192-87 93-135 158-135 186 0 21 61 107 82 115 21 9 25 8 49-12z"/><path d="m1842 1241c-9-5-11-19-7-43 5-28 2-40-17-61-13-14-31-27-40-29s-60 28-113 65c-94 67-127 78-133 46-2-11 29-39 92-84 53-38 96-71 96-75 0-13-36-40-67-50-29-11-36-7-121 54-91 67-116 77-125 52-8-20 7-34 93-96 41-30 77-55 79-57 3-2-7-15-21-29-43-43-83-36-172 31-63 48-79 55-91 45-25-21-17-36 40-76 37-25 52-41 46-47-17-17-94-11-137 11-23 12-46 17-53 13-24-15-7-44 39-67 56-29 124-31 167-5 24 16 43 19 85 14 45-4 58-1 88 19 19 13 40 34 47 47 7 15 30 31 60 42 26 10 62 34 78 52 17 19 44 41 62 50 50 26 73 63 73 116 0 59-18 82-48 62z"/></g></g></svg>
