<?xml version="1.0" encoding="UTF-8"?>
<!-- Created with Inkscape (http://www.inkscape.org/) -->
<svg width="100%" height="100%" version="1.1" viewBox="0 0 49.268 57.787" xml:space="preserve" xmlns="http://www.w3.org/2000/svg"><g transform="translate(-66.56 -99.203)"><g transform="matrix(.035278 0 0 -.035278 44.617 182.81)"><path d="m1318 2359c-15-8-17-20-12-72 9-102 11-107 44-107h30v95c0 92-1 95-22 95-13 0-31-5-40-11zm32-84c0-37-4-65-10-65s-10 28-10 65 4 65 10 65 10-28 10-65z"/><path d="m955 2286c-27-8-40-18-39-29 3-26 97-187 110-187 7 0 21 8 33 18l20 17-32 94c-18 52-37 96-42 97-6 1-28-3-50-10zm60-83c15-38 29-74 32-80 3-7-1-13-8-13-21 0-92 142-76 152 21 13 24 10 52-59z"/><path d="m1812 2212c-63-90-122-233-96-232 25 1 213 147 214 166 0 12-56 71-81 85-14 7-22 3-37-19zm60-29c28-25 22-38-34-85-87-72-90-74-80-52 25 59 78 154 86 154 5 0 18-7 28-17z"/><path d="m676 2059c-11-56-8-63 38-82 24-10 62-34 85-53 33-29 42-33 47-20 7 17-130 186-151 186-7 0-15-14-19-31zm80-66c-3-3-51 14-64 23-2 1-1 13 3 25 8 23 8 23 36-11 16-18 27-35 25-37z"/><path d="m1187 2041c-167-55-272-185-284-351-8-109 11-169 131-409 98-195 105-213 100-254-5-32-2-46 10-56 9-7 16-26 16-42s5-29 10-29c6 0 10-13 10-28 0-28 26-62 47-62 5 0 18-9 28-20s23-20 30-20 20-9 30-20c27-30 41-25 96 33 60 61 89 105 89 131 0 11 5 34 12 52 9 26 9 41-1 72-18 55 3 116 80 225 76 109 124 207 139 278 34 170-85 401-248 481-57 28-78 33-152 35-62 2-101-2-143-16zm265-55c125-61 210-193 234-360l7-50-41 32c-44 35-52 38-52 20 1-7 19-25 40-40 24-17 40-36 40-48 0-27-9-25-46 11-18 17-34 26-38 21-3-6 12-26 34-45 28-24 38-39 34-51-5-14-11-12-40 14-39 34-44 36-44 16 0-7 16-24 35-37 38-26 39-28 26-48-7-11-16-8-45 14-49 37-61 22-15-18 34-31 41-57 15-57-7 0-25 14-41 30-19 20-32 27-39 20-6-6 4-21 30-44 28-25 36-37 28-45-7-8-17-4-34 14-13 14-27 25-32 25-17 0-7-29 17-48l25-20-34-57c-19-31-40-78-47-105-23-91-36-69-41 68-5 114-3 134 18 200 13 40 35 95 49 122 47 92 25 133-45 86-48-32-50-32-50-2 0 40-11 56-37 56-16 0-29-10-41-30-21-36-26-37-40-5-16 36-51 33-65-5-13-34-19-36-37-15-16 19-44 19-60 0-13-16 10-95 76-262 20-53 28-85 22-89-7-5-8-40-4-101 10-139-8-124-105 87-147 320-170 395-149 496 23 108 121 216 235 256 66 23 204 20 257-6zm-80-403c2-25 8-48 14-50s31 13 55 33c26 22 45 31 47 24 2-6-17-56-42-110s-49-118-52-143l-6-45-65-7c-36-4-66-5-68-3s-19 46-39 98c-19 52-43 116-52 142-21 54-16 66 19 43 23-15 26-15 41 0 9 9 16 23 16 31 0 22 16 17 34-11 22-33 30-32 56 10 12 19 26 35 30 35 5 0 10-21 12-47zm28-417v-93l-46-7c-105-14-101-17-109 80-4 47-4 89 1 94 9 9 52 16 117 18l37 2zm74-148c8-13 6-22-9-38-12-14-20-36-20-59v-36l-78 2c-59 2-78 0-75-10 3-7 27-13 62-15 39-2 56-7 53-15-6-19-49-37-88-37-28 0-38 5-42 20-3 12-14 20-27 20-19 0-21 4-15 29 5 23 2 29-14 34-12 3-21 9-21 15s35 7 90 4c73-4 90-2 90 9s-19 14-81 14c-66 0-82 3-90 18-6 9-17 17-25 17-9 0-14 7-12 17 3 15 16 17 98 15 52-1 111 2 130 7 46 12 61 10 74-11z"/><path d="m1087 1866c-39-36-76-106-77-144 0-38 21-20 42 36 12 33 33 64 59 85 21 19 39 39 39 45 0 21-26 12-63-22z"/><path d="m1955 1753c-11-2-48-11-82-20l-63-16v-43c0-53 1-53 120-15l85 26 3 38c3 39-4 43-63 30zm33-35c-2-6-33-20-69-30-77-22-79-22-79-5 0 9 25 20 68 29 87 20 84 20 80 6z"/><path d="m681 1624c-30-8-57-16-58-18-2-2-1-16 3-31 6-26 9-27 56-21 81 11 95 20 90 55s-12 37-91 15zm57-26c-3-7-21-16-42-19-41-7-46 11-5 22 38 11 51 10 47-3z"/></g></g></svg>
