<?xml version="1.0" standalone="no"?>
<!DOCTYPE svg PUBLIC "-//W3C//DTD SVG 20010904//EN"
 "http://www.w3.org/TR/2001/REC-SVG-20010904/DTD/svg10.dtd">
<svg version="1.0" xmlns="http://www.w3.org/2000/svg"
 width="263.000000pt" height="282.000000pt" viewBox="0 0 263.000000 282.000000"
 preserveAspectRatio="xMidYMid meet">
<metadata>
Created by potrace 1.10, written by Peter Selinger 2001-2011
</metadata>
<g transform="translate(0.000000,282.000000) scale(0.100000,-0.100000)"
fill="#000000" stroke="none">
<path d="M1318 2359 c-15 -8 -17 -20 -12 -72 9 -102 11 -107 44 -107 l30 0 0
95 c0 92 -1 95 -22 95 -13 0 -31 -5 -40 -11z m32 -84 c0 -37 -4 -65 -10 -65
-6 0 -10 28 -10 65 0 37 4 65 10 65 6 0 10 -28 10 -65z"/>
<path d="M955 2286 c-27 -8 -40 -18 -39 -29 3 -26 97 -187 110 -187 7 0 21 8
33 18 l20 17 -32 94 c-18 52 -37 96 -42 97 -6 1 -28 -3 -50 -10z m60 -83 c15
-38 29 -74 32 -80 3 -7 -1 -13 -8 -13 -21 0 -92 142 -76 152 21 13 24 10 52
-59z"/>
<path d="M1812 2212 c-63 -90 -122 -233 -96 -232 25 1 213 147 214 166 0 12
-56 71 -81 85 -14 7 -22 3 -37 -19z m60 -29 c28 -25 22 -38 -34 -85 -87 -72
-90 -74 -80 -52 25 59 78 154 86 154 5 0 18 -7 28 -17z"/>
<path d="M676 2059 c-11 -56 -8 -63 38 -82 24 -10 62 -34 85 -53 33 -29 42
-33 47 -20 7 17 -130 186 -151 186 -7 0 -15 -14 -19 -31z m80 -66 c-3 -3 -51
14 -64 23 -2 1 -1 13 3 25 8 23 8 23 36 -11 16 -18 27 -35 25 -37z"/>
<path d="M1187 2041 c-167 -55 -272 -185 -284 -351 -8 -109 11 -169 131 -409
98 -195 105 -213 100 -254 -5 -32 -2 -46 10 -56 9 -7 16 -26 16 -42 0 -16 5
-29 10 -29 6 0 10 -13 10 -28 0 -28 26 -62 47 -62 5 0 18 -9 28 -20 10 -11 23
-20 30 -20 7 0 20 -9 30 -20 27 -30 41 -25 96 33 60 61 89 105 89 131 0 11 5
34 12 52 9 26 9 41 -1 72 -18 55 3 116 80 225 76 109 124 207 139 278 34 170
-85 401 -248 481 -57 28 -78 33 -152 35 -62 2 -101 -2 -143 -16z m265 -55
c125 -61 210 -193 234 -360 l7 -50 -41 32 c-44 35 -52 38 -52 20 1 -7 19 -25
40 -40 24 -17 40 -36 40 -48 0 -27 -9 -25 -46 11 -18 17 -34 26 -38 21 -3 -6
12 -26 34 -45 28 -24 38 -39 34 -51 -5 -14 -11 -12 -40 14 -39 34 -44 36 -44
16 0 -7 16 -24 35 -37 38 -26 39 -28 26 -48 -7 -11 -16 -8 -45 14 -49 37 -61
22 -15 -18 34 -31 41 -57 15 -57 -7 0 -25 14 -41 30 -19 20 -32 27 -39 20 -6
-6 4 -21 30 -44 28 -25 36 -37 28 -45 -7 -8 -17 -4 -34 14 -13 14 -27 25 -32
25 -17 0 -7 -29 17 -48 l25 -20 -34 -57 c-19 -31 -40 -78 -47 -105 -23 -91
-36 -69 -41 68 -5 114 -3 134 18 200 13 40 35 95 49 122 47 92 25 133 -45 86
-48 -32 -50 -32 -50 -2 0 40 -11 56 -37 56 -16 0 -29 -10 -41 -30 -21 -36 -26
-37 -40 -5 -16 36 -51 33 -65 -5 -13 -34 -19 -36 -37 -15 -16 19 -44 19 -60 0
-13 -16 10 -95 76 -262 20 -53 28 -85 22 -89 -7 -5 -8 -40 -4 -101 10 -139 -8
-124 -105 87 -147 320 -170 395 -149 496 23 108 121 216 235 256 66 23 204 20
257 -6z m-80 -403 c2 -25 8 -48 14 -50 6 -2 31 13 55 33 26 22 45 31 47 24 2
-6 -17 -56 -42 -110 -25 -54 -49 -118 -52 -143 l-6 -45 -65 -7 c-36 -4 -66 -5
-68 -3 -2 2 -19 46 -39 98 -19 52 -43 116 -52 142 -21 54 -16 66 19 43 23 -15
26 -15 41 0 9 9 16 23 16 31 0 22 16 17 34 -11 22 -33 30 -32 56 10 12 19 26
35 30 35 5 0 10 -21 12 -47z m28 -417 l0 -93 -46 -7 c-105 -14 -101 -17 -109
80 -4 47 -4 89 1 94 9 9 52 16 117 18 l37 2 0 -94z m74 -148 c8 -13 6 -22 -9
-38 -12 -14 -20 -36 -20 -59 l0 -36 -78 2 c-59 2 -78 0 -75 -10 3 -7 27 -13
62 -15 39 -2 56 -7 53 -15 -6 -19 -49 -37 -88 -37 -28 0 -38 5 -42 20 -3 12
-14 20 -27 20 -19 0 -21 4 -15 29 5 23 2 29 -14 34 -12 3 -21 9 -21 15 0 6 35
7 90 4 73 -4 90 -2 90 9 0 11 -19 14 -81 14 -66 0 -82 3 -90 18 -6 9 -17 17
-25 17 -9 0 -14 7 -12 17 3 15 16 17 98 15 52 -1 111 2 130 7 46 12 61 10 74
-11z"/>
<path d="M1087 1866 c-39 -36 -76 -106 -77 -144 0 -38 21 -20 42 36 12 33 33
64 59 85 21 19 39 39 39 45 0 21 -26 12 -63 -22z"/>
<path d="M1955 1753 c-11 -2 -48 -11 -82 -20 l-63 -16 0 -43 c0 -53 1 -53 120
-15 l85 26 3 38 c3 39 -4 43 -63 30z m33 -35 c-2 -6 -33 -20 -69 -30 -77 -22
-79 -22 -79 -5 0 9 25 20 68 29 87 20 84 20 80 6z"/>
<path d="M681 1624 c-30 -8 -57 -16 -58 -18 -2 -2 -1 -16 3 -31 6 -26 9 -27
56 -21 81 11 95 20 90 55 -5 35 -12 37 -91 15z m57 -26 c-3 -7 -21 -16 -42
-19 -41 -7 -46 11 -5 22 38 11 51 10 47 -3z"/>
</g>
</svg>
