<?xml version="1.0" standalone="no"?>
<!DOCTYPE svg PUBLIC "-//W3C//DTD SVG 20010904//EN"
 "http://www.w3.org/TR/2001/REC-SVG-20010904/DTD/svg10.dtd">
<svg version="1.0" xmlns="http://www.w3.org/2000/svg"
 width="300.000000pt" height="210.000000pt" viewBox="0 0 300.000000 210.000000"
 preserveAspectRatio="xMidYMid meet">
<metadata>
Created by potrace 1.10, written by Peter Selinger 2001-2011
</metadata>
<g transform="translate(0.000000,210.000000) scale(0.100000,-0.100000)"
fill="#000000" stroke="none">
<path d="M265 2024 c-11 -3 -30 -7 -43 -10 -32 -7 -100 -71 -124 -117 -46 -91
-29 -223 39 -298 21 -23 60 -56 88 -74 163 -104 203 -202 120 -290 -27 -29
-39 -35 -75 -35 -57 0 -113 33 -156 93 -43 59 -61 68 -85 38 -18 -22 -18 -24
1 -61 35 -68 139 -129 221 -130 25 0 66 7 90 15 195 67 222 306 51 454 -170
147 -192 175 -192 246 0 53 44 95 100 95 35 0 48 -7 90 -46 52 -49 83 -55 88
-17 5 33 -12 56 -70 96 -52 35 -103 50 -143 41z m89 -28 c45 -19 106 -74 106
-97 0 -30 -21 -23 -66 22 -33 33 -51 42 -86 46 -59 6 -103 -22 -119 -77 -24
-78 21 -156 146 -255 117 -93 161 -170 153 -268 -6 -75 -34 -126 -90 -164 -92
-61 -187 -62 -278 -3 -51 33 -95 92 -86 115 10 27 34 16 66 -30 62 -90 161
-127 228 -86 73 47 93 138 47 217 -18 31 -55 65 -125 114 -122 87 -153 131
-158 231 -7 110 47 203 134 234 50 18 87 18 128 1z"/>
<path d="M1143 1770 c-40 -24 -63 -68 -66 -125 -2 -43 -3 -45 -34 -45 -31 0
-33 -2 -33 -35 0 -33 2 -35 35 -35 l35 0 0 -190 0 -190 43 0 42 0 3 187 c2
103 5 189 6 191 7 6 128 4 134 -3 4 -4 6 -57 5 -118 -2 -62 0 -145 3 -184 l6
-73 39 0 39 0 0 190 0 190 45 0 c45 0 45 0 45 35 0 35 0 35 -46 35 l-47 0 6
38 c7 43 38 72 77 72 29 0 40 15 40 56 0 22 -4 24 -46 24 -91 0 -148 -51 -160
-143 -6 -42 -9 -45 -40 -49 -19 -2 -50 -2 -69 0 -33 4 -35 6 -35 42 0 49 21
70 71 70 39 0 39 0 39 40 l0 40 -52 0 c-35 0 -64 -7 -85 -20z m127 -15 c0 -21
-5 -25 -29 -25 -16 0 -37 -3 -46 -6 -39 -15 -62 -125 -29 -138 9 -3 27 -6 40
-6 18 0 24 -5 24 -21 0 -17 -4 -20 -24 -15 -55 14 -56 10 -56 -193 l0 -188
-30 5 -30 4 2 187 3 186 -25 1 c-45 1 -50 4 -50 24 0 16 7 20 34 20 33 0 34 0
38 55 7 89 48 127 143 133 31 2 35 0 35 -23z m240 8 c0 -17 -17 -30 -45 -37
-50 -12 -75 -43 -75 -92 l0 -43 43 -3 c35 -2 43 -7 45 -25 3 -21 -1 -23 -42
-23 -30 0 -46 -5 -47 -12 -2 -13 -2 -38 -7 -244 -2 -110 -2 -112 -27 -116
l-25 -5 0 188 0 189 -35 0 c-31 0 -35 3 -35 26 0 23 3 25 33 22 32 -3 32 -2
37 47 10 91 53 135 131 135 27 0 49 -3 49 -7z"/>
<path d="M1562 1738 c-34 -34 14 -102 56 -79 48 26 31 90 -23 91 -12 0 -26 -5
-33 -12z m56 -7 c8 -4 12 -19 10 -32 -4 -33 -53 -40 -63 -9 -11 36 22 61 53
41z"/>
<path d="M713 1600 c-45 -10 -80 -35 -103 -73 -32 -51 -27 -67 20 -67 33 0 42
4 54 29 18 33 64 53 106 44 37 -7 49 -21 52 -64 l3 -34 -72 -7 c-126 -13 -184
-55 -191 -141 -4 -46 -1 -57 23 -85 54 -64 123 -78 202 -43 35 16 42 17 47 5
4 -9 21 -14 55 -14 l50 0 -10 32 c-5 18 -9 97 -9 176 0 108 -4 150 -15 172
-28 54 -131 88 -212 70z m113 -21 c28 -7 54 -23 69 -41 24 -28 25 -36 25 -161
1 -73 5 -151 9 -174 l8 -43 -33 0 c-30 0 -34 3 -34 25 0 30 -3 31 -40 4 -36
-27 -118 -36 -160 -19 -47 19 -70 55 -70 109 0 88 62 130 188 131 l72 0 0 45
c0 59 -32 95 -85 95 -45 0 -92 -23 -100 -50 -5 -15 -15 -20 -42 -20 l-35 0 20
33 c24 37 93 77 134 77 16 0 49 -5 74 -11z"/>
<path d="M710 1363 c-31 -11 -60 -47 -60 -73 0 -53 77 -102 132 -84 48 14 76
43 83 84 12 71 3 80 -73 79 -37 0 -74 -3 -82 -6z m140 -52 c0 -45 -3 -51 -34
-70 -43 -27 -86 -27 -120 0 -30 23 -35 69 -10 89 17 15 71 27 127 29 l37 1 0
-49z"/>
<path d="M1865 1596 c-49 -18 -107 -81 -123 -134 -27 -89 -10 -191 41 -249 40
-46 82 -63 152 -63 58 0 103 17 143 53 28 26 28 40 -1 56 -21 11 -29 9 -62
-13 -67 -46 -142 -30 -174 38 -12 23 -21 48 -21 54 0 9 40 12 146 12 l147 0
-5 64 c-7 76 -39 142 -84 168 -43 25 -111 31 -159 14z m145 -25 c48 -25 80
-89 80 -158 l0 -54 -142 2 -143 2 3 -29 c6 -48 33 -94 66 -111 48 -25 109 -21
149 10 32 24 36 25 48 11 12 -14 9 -20 -16 -40 -83 -67 -214 -50 -276 36 -25
33 -41 124 -33 178 8 56 60 132 104 154 46 23 116 23 160 -1z"/>
<path d="M1905 1553 c-39 -10 -81 -61 -99 -120 -7 -23 -7 -23 114 -23 l122 0
-7 33 c-20 88 -65 126 -130 110z m67 -24 c20 -11 48 -65 48 -95 0 -14 -11 -15
-97 -9 -54 4 -99 8 -101 10 -8 7 30 65 54 84 29 23 64 27 96 10z"/>
<path d="M2303 1590 c-27 -16 -33 -17 -33 -5 0 11 -11 15 -40 15 l-40 0 0
-225 0 -225 39 0 c38 0 38 0 45 46 3 26 6 102 6 169 0 122 0 123 26 140 15 9
44 20 66 23 38 5 39 6 36 41 -3 33 -6 36 -38 39 -22 1 -47 -5 -67 -18z m-43
-25 c0 -14 2 -25 5 -25 2 0 15 11 29 25 17 17 36 25 61 25 30 0 35 -3 35 -23
0 -17 -6 -23 -25 -25 -35 -3 -82 -28 -95 -51 -5 -11 -10 -86 -10 -170 l0 -151
-31 0 -31 0 3 210 4 210 28 0 c22 0 27 -4 27 -25z"/>
<path d="M1550 1375 l0 -225 45 0 45 0 0 83 c0 45 -3 146 -7 225 l-6 142 -39
0 -38 0 0 -225z m70 -6 l0 -211 -22 6 c-13 3 -27 6 -31 6 -8 0 -7 235 1 353 4
52 6 57 28 57 l24 0 0 -211z"/>
<path d="M340 888 c-1 -117 -1 -316 -1 -443 l0 -230 75 -3 75 -3 3 123 c2 68
2 125 1 127 -10 15 -15 -22 -18 -116 l-4 -108 -60 -3 -61 -3 1 298 c1 164 4
357 8 428 l6 130 58 1 57 1 0 -124 c0 -69 4 -123 9 -123 5 0 49 54 98 120 l88
120 78 0 c60 0 76 -3 70 -12 -4 -7 -41 -56 -83 -108 -111 -138 -205 -262 -217
-285 -11 -21 23 -70 249 -359 l68 -86 -83 0 -83 0 -83 105 c-46 58 -86 103
-89 100 -6 -5 88 -130 142 -187 l35 -38 96 0 96 0 -23 33 c-12 17 -87 115
-166 216 -79 101 -146 189 -148 195 -3 7 34 62 81 122 174 221 245 313 245
317 0 2 -44 3 -97 1 -95 -2 -99 -3 -118 -30 -11 -16 -48 -67 -83 -112 l-62
-84 0 70 c0 38 -3 90 -6 116 l-7 46 -73 0 -74 0 0 -212z"/>
<path d="M892 862 c-9 -7 -12 -78 -10 -323 l3 -314 43 -3 42 -3 0 319 c0 282
-2 321 -16 326 -21 8 -46 7 -62 -2z m58 -19 c0 -5 2 -144 4 -310 l4 -303 -29
0 -28 0 -3 300 c-2 165 -1 305 0 310 4 12 52 14 52 3z"/>
<path d="M1977 822 c-24 -26 -21 -49 7 -67 33 -22 76 -3 76 35 0 49 -50 68
-83 32z m71 -35 c-2 -17 -10 -22 -33 -22 -35 0 -47 31 -20 51 25 18 57 0 53
-29z"/>
<path d="M1087 683 c-4 -3 -7 -85 -7 -181 0 -195 8 -229 64 -263 43 -26 128
-25 172 2 l34 21 0 -22 c0 -19 5 -21 43 -18 l42 3 0 225 0 225 -40 0 -40 0 -3
-161 -2 -161 -29 -27 c-39 -37 -93 -39 -129 -2 l-27 27 1 162 c1 112 -2 164
-10 169 -14 10 -60 10 -69 1z m69 -22 c-4 -5 -7 -74 -7 -153 -2 -189 16 -228
105 -228 25 0 45 9 71 31 l35 31 0 113 c0 62 3 133 6 159 6 40 10 46 30 46
l24 0 0 -210 0 -210 -24 0 c-15 0 -26 7 -29 21 l-5 20 -44 -22 c-50 -26 -124
-30 -163 -9 -15 8 -34 28 -43 45 -19 38 -27 154 -17 279 l7 96 30 0 c16 0 27
-4 24 -9z"/>
<path d="M1649 681 c-71 -23 -109 -72 -109 -139 0 -33 6 -45 33 -69 19 -16 56
-35 83 -42 98 -26 115 -33 130 -56 21 -33 4 -61 -45 -76 -33 -10 -45 -9 -78 7
-21 11 -44 32 -51 47 -12 24 -19 28 -50 25 -46 -4 -53 -29 -20 -78 39 -57 82
-80 152 -80 77 0 138 27 166 72 55 90 -11 177 -153 203 -22 4 -51 18 -65 31
-26 22 -26 24 -12 51 32 58 140 50 156 -12 5 -21 12 -25 44 -25 22 0 42 5 45
10 12 19 -39 94 -76 112 -43 22 -115 30 -150 19z m131 -27 c23 -10 48 -29 60
-49 26 -42 25 -45 -9 -45 -21 0 -32 6 -36 20 -16 51 -119 67 -160 25 -54 -53
-20 -104 89 -131 92 -23 136 -60 136 -116 0 -60 -30 -94 -97 -114 -93 -27
-163 -7 -203 59 -27 44 -25 57 10 57 19 0 30 -5 30 -14 0 -8 14 -26 32 -41 28
-24 39 -27 85 -23 61 5 93 29 93 68 0 38 -36 66 -110 85 -78 20 -114 38 -134
67 -20 29 -20 51 0 94 31 66 128 92 214 58z"/>
<path d="M2275 674 c-83 -43 -125 -120 -125 -228 0 -65 30 -146 66 -178 73
-65 201 -62 280 6 l36 31 -25 23 -25 24 -42 -28 c-45 -30 -108 -37 -148 -15
-29 15 -62 68 -62 99 l0 24 148 -4 147 -3 3 35 c6 54 -17 137 -46 171 -47 57
-143 77 -207 43z m162 -24 c42 -25 65 -71 73 -147 l6 -63 -149 0 -150 0 6 -46
c3 -34 13 -55 36 -78 29 -28 37 -31 95 -31 53 0 69 4 88 23 28 26 41 27 57 8
9 -11 6 -18 -14 -34 -66 -52 -186 -56 -248 -9 -104 79 -96 287 14 366 35 26
51 31 98 31 38 0 66 -6 88 -20z"/>
<path d="M2288 614 c-29 -15 -50 -49 -62 -95 l-6 -27 79 -7 c104 -9 161 0 161
26 0 32 -26 85 -51 103 -29 20 -85 20 -121 0z m121 -21 c12 -10 26 -35 30 -55
l9 -38 -99 0 c-77 0 -101 3 -105 14 -7 18 21 72 43 85 29 17 98 13 122 -6z"/>
<path d="M2705 676 c-61 -23 -95 -66 -95 -122 0 -60 35 -94 122 -119 120 -33
153 -63 118 -108 -42 -54 -140 -42 -166 19 -11 27 -20 34 -42 34 -59 0 -65
-32 -16 -96 32 -43 81 -64 151 -64 101 0 173 58 173 140 0 65 -50 110 -148
130 -63 14 -112 44 -112 70 0 26 44 54 86 54 35 0 84 -36 84 -61 0 -9 14 -13
45 -13 53 0 59 17 22 70 -44 67 -141 95 -222 66z m151 -22 c63 -30 100 -104
52 -104 -12 0 -35 17 -56 41 -34 40 -37 41 -86 36 -38 -3 -55 -11 -73 -31 -43
-51 -3 -93 117 -125 94 -25 135 -63 127 -118 -9 -52 -33 -82 -84 -105 -81 -36
-193 -5 -228 62 -20 40 -19 50 8 50 14 0 28 -11 39 -30 20 -36 53 -50 114 -50
36 0 50 5 69 26 14 15 25 37 25 50 0 26 -50 71 -88 80 -144 31 -195 86 -155
163 34 65 141 92 219 55z"/>
<path d="M1970 411 c0 -264 0 -271 -21 -282 -12 -6 -29 -9 -39 -6 -22 6 -31
-19 -19 -51 7 -17 16 -22 46 -22 51 0 99 31 111 72 6 19 10 141 9 293 l-2 260
-42 3 -43 3 0 -270z m70 -6 c0 -304 -3 -317 -69 -335 -46 -12 -71 -5 -71 21 0
14 7 19 30 19 57 0 60 18 60 296 -1 137 -1 252 0 257 0 4 11 7 25 7 l25 0 0
-265z"/>
</g>
</svg>
