<?xml version="1.0" standalone="no"?>
<!DOCTYPE svg PUBLIC "-//W3C//DTD SVG 20010904//EN"
 "http://www.w3.org/TR/2001/REC-SVG-20010904/DTD/svg10.dtd">
<svg version="1.0" xmlns="http://www.w3.org/2000/svg"
 width="300.000000pt" height="300.000000pt" viewBox="0 0 300.000000 300.000000"
 preserveAspectRatio="xMidYMid meet">
<metadata>
Created by potrace 1.10, written by Peter Selinger 2001-2011
</metadata>
<g transform="translate(0.000000,300.000000) scale(0.100000,-0.100000)"
fill="#000000" stroke="none">
<path d="M1365 2799 c-166 -17 -303 -58 -460 -136 -130 -65 -228 -136 -335
-243 -112 -112 -183 -212 -250 -353 -87 -182 -120 -334 -120 -551 0 -340 122
-642 359 -890 182 -189 382 -306 637 -373 102 -26 122 -28 304 -28 179 0 204
3 303 28 445 112 784 420 935 849 49 138 66 243 66 413 0 348 -115 637 -351
886 -219 230 -496 364 -825 399 -108 11 -147 11 -263 -1z m360 -44 c247 -38
498 -167 681 -350 110 -110 181 -208 244 -340 91 -191 123 -335 123 -550 -1
-143 -8 -200 -42 -340 -21 -82 -96 -251 -149 -331 -55 -85 -109 -152 -171
-214 -455 -453 -1155 -508 -1664 -132 -119 89 -286 267 -320 342 -4 8 -18 33
-32 55 -54 87 -102 206 -137 342 -20 78 -23 111 -22 288 0 215 9 273 70 433
71 189 206 383 351 506 301 253 666 352 1068 291z"/>
<path d="M1000 2234 c-99 -35 -180 -121 -225 -239 -15 -37 -20 -75 -20 -150 0
-88 3 -107 27 -155 44 -91 98 -150 223 -244 183 -137 218 -180 219 -277 1 -46
-4 -63 -27 -97 -47 -67 -112 -86 -199 -60 -40 12 -100 65 -184 161 -46 53 -75
60 -118 26 -53 -42 -27 -119 71 -211 191 -177 488 -149 622 60 65 102 77 204
36 323 -44 130 -107 207 -299 363 -78 64 -117 113 -136 170 -24 76 13 168 79
196 53 22 96 5 172 -66 78 -73 113 -83 147 -39 17 21 18 31 10 64 -31 124
-260 224 -398 175z m180 -30 c82 -24 156 -78 186 -136 20 -39 17 -57 -11 -70
-24 -11 -30 -8 -90 54 -70 72 -114 93 -176 85 -138 -18 -184 -200 -84 -331 15
-20 71 -71 124 -114 158 -127 219 -198 263 -311 32 -84 31 -198 -4 -272 -33
-72 -90 -129 -170 -171 -58 -31 -70 -33 -158 -33 -86 0 -102 3 -162 32 -129
61 -236 193 -193 237 33 33 62 20 111 -48 72 -100 160 -156 246 -156 136 0
227 130 185 264 -23 72 -64 116 -196 214 -144 107 -192 156 -233 240 -31 62
-33 74 -32 162 0 114 24 184 85 254 53 60 93 87 148 102 63 17 98 17 161 -2z"/>
<path d="M1487 2232 c-15 -17 -17 -78 -17 -673 0 -777 -15 -699 139 -699 140
0 137 -6 140 223 1 34 5 47 14 45 6 -3 54 -58 105 -124 52 -65 103 -124 115
-131 14 -8 69 -12 152 -12 195 0 203 14 90 160 -128 163 -251 321 -318 405
-37 47 -75 96 -83 110 -18 27 -38 -2 201 309 59 77 126 165 149 195 22 30 49
64 60 75 48 51 78 128 35 89 -35 -31 -494 -635 -493 -648 1 -7 116 -159 257
-339 l256 -327 -147 0 -147 0 -139 180 c-77 99 -140 180 -141 180 -1 0 0 -81
3 -180 l5 -180 -112 0 -111 0 0 665 0 665 111 0 111 0 -3 -189 c-2 -104 -3
-189 -3 -188 9 10 164 222 212 290 l63 87 132 0 c73 0 138 4 145 9 25 15 -15
21 -153 21 l-133 0 -28 -34 c-16 -19 -65 -85 -109 -145 -44 -61 -83 -111 -87
-111 -5 0 -8 53 -8 119 0 105 -2 121 -21 145 -20 25 -24 26 -123 26 -87 0
-105 -3 -119 -18z"/>
</g>
</svg>
